<?xml version="1.0" standalone="no"?>
<!DOCTYPE svg PUBLIC "-//W3C//DTD SVG 20010904//EN"
 "http://www.w3.org/TR/2001/REC-SVG-20010904/DTD/svg10.dtd">
<svg version="1.0" xmlns="http://www.w3.org/2000/svg"
 width="224.000000pt" height="367.000000pt" viewBox="0 0 224.000000 367.000000"
 preserveAspectRatio="xMidYMid meet">

<g transform="translate(0.000000,367.000000) scale(0.100000,-0.100000)"
fill="#000000" stroke="none">
<path d="M340 3648 c-58 -30 -99 -88 -106 -153 -5 -43 -2 -58 23 -102 19 -36
251 -282 761 -808 403 -416 732 -760 730 -765 -2 -5 -336 -347 -742 -762 -425
-433 -745 -767 -752 -785 -8 -18 -14 -56 -14 -84 0 -97 66 -172 164 -185 99
-14 62 -48 957 864 451 460 827 849 835 864 26 49 28 110 7 160 -29 64 -1650
1740 -1705 1763 -54 21 -106 19 -158 -7z"/>
</g>
</svg>
